<?xml version="1.0" encoding="UTF-8" standalone="no"?>
<svg width="100%" height="100%" viewBox="-20 -20 340 317.09" version="1.1" xmlns="http://www.w3.org/2000/svg" style="fill-rule:evenodd;clip-rule:evenodd;fill:rgb(69,140,69);">
<path d="m300,64.13h-60.14l-28.76,75.87-6.23-.02,20.37-53.75L150,0l-75.24,86.23,20.37,53.75-6.23.02-28.76-75.87H0l28.83,76.05-27.22.09,52.21,136.82h192.36l52.21-136.82-27.22-.09,28.83-76.05Zm-75.28,175.97h-45.73l-28.99-77.52-28.99,77.52h-45.73L11.62,72.15h42.99l.05.13,43.34,114.35.07-.2,29.08-77.73h45.7l29.08,77.73.07.2,43.34-114.35.05-.13h42.99l-63.66,167.95Z"/>
</svg>
