<svg width="210" height="496" viewBox="0 0 210 496" fill="none" xmlns="http://www.w3.org/2000/svg">
<path d="M159 398L159 300" stroke="#EB7108" stroke-width="10" stroke-linecap="round"/>
<path d="M15 496L15 210" stroke="#EB7108" stroke-width="10"/>
<path d="M159 398L159 496" stroke="#EB7108" stroke-width="10"/>
<path d="M51 98L51 326" stroke="#EB7108" stroke-width="10" stroke-linecap="round"/>
<path d="M159 374L123 338" stroke="#EB7108" stroke-width="10" stroke-linecap="round"/>
<path d="M51 199L15 163" stroke="#EB7108" stroke-width="10" stroke-linecap="round"/>
<path d="M159 434L51 326" stroke="#EB7108" stroke-width="10" stroke-linecap="round"/>
<path d="M123 301L123 338" stroke="#EB7108" stroke-width="10" stroke-linecap="round"/>
<path d="M123 301L123 209" stroke="#EB7108" stroke-width="10" stroke-linecap="round"/>
<path d="M92 408C92 405.239 89.7614 403 87 403C84.2386 403 82 405.239 82 408L87 408L92 408ZM87 496L92 496L92 408L87 408L82 408L82 496L87 496Z" fill="#EB7108"/>
<path d="M195 496L195 408" stroke="#EB7108" stroke-width="10"/>
<path d="M56 372C56 369.239 53.7614 367 51 367C48.2386 367 46 369.239 46 372L51 372L56 372ZM51 496L56 496L56 372L51 372L46 372L46 496L51 496Z" fill="#EB7108"/>
<path d="M123 282L87 246" stroke="#EB7108" stroke-width="10" stroke-linecap="round"/>
<path d="M87 175L87 246" stroke="#EB7108" stroke-width="10" stroke-linecap="round"/>
<path d="M15 25L15 163" stroke="#EB7108" stroke-width="10" stroke-linecap="round"/>
<circle cx="123" cy="199" r="10" stroke="#EB7108" stroke-width="10"/>
<circle cx="15" cy="15" r="10" stroke="#EB7108" stroke-width="10"/>
<circle cx="87" cy="398" r="10" stroke="#EB7108" stroke-width="10"/>
<circle cx="195" cy="398" r="10" stroke="#EB7108" stroke-width="10"/>
<circle cx="51" cy="362" r="10" stroke="#EB7108" stroke-width="10"/>
<circle cx="87" cy="165" r="10" stroke="#EB7108" stroke-width="10"/>
<circle cx="51" cy="88" r="10" stroke="#EB7108" stroke-width="10"/>
<path d="M123 444V496" stroke="#EB7108" stroke-width="10"/>
<path d="M87 300L87 360" stroke="#EB7108" stroke-width="10" stroke-linecap="round"/>
<circle cx="123" cy="434" r="10" stroke="#EB7108" stroke-width="10"/>
<circle cx="87" cy="290" r="10" stroke="#EB7108" stroke-width="10"/>
<circle cx="159" cy="290" r="10" stroke="#EB7108" stroke-width="10" stroke-linecap="round"/>
<circle cx="15" cy="200" r="10" stroke="#EB7108" stroke-width="10" stroke-linecap="round"/>
</svg>
